<svg version="1.1" xmlns="http://www.w3.org/2000/svg" viewBox="0 0 852.5 799.25" width="2557.5" height="2397.75">
  <!-- svg-source:excalidraw -->
  
  <defs>
    <style class="style-fonts">
      @font-face {
        font-family: "Virgil";
        src: url("https://excalidraw.com/Virgil.woff2");
      }
      @font-face {
        font-family: "Cascadia";
        src: url("https://excalidraw.com/Cascadia.woff2");
      }
      @font-face {
        font-family: "Assistant";
        src: url("https://excalidraw.com/Assistant-Regular.woff2");
      }
    </style>
    
  </defs>
  <rect x="0" y="0" width="852.5" height="799.25" fill="#ffffff"></rect><g stroke-linecap="round" transform="translate(12.5 356.5) rotate(0 117.5 64.5)"><path d="M32 0 C79.19 -0.2, 123.72 -2.54, 203 0 C221.51 1.02, 231.55 11.45, 235 32 C237.09 58.16, 231.8 80.98, 235 97 C233.35 118.56, 226.99 129.3, 203 129 C152.41 126.44, 94.07 131.22, 32 129 C13.61 127.21, 3.55 117.13, 0 97 C-2.41 75.8, 2.68 45.59, 0 32 C-1.16 11.68, 8.75 -1.45, 32 0" stroke="none" stroke-width="0" fill="#b2f2bb"></path><path d="M32 0 C64.79 1.1, 102.95 0.68, 203 0 M32 0 C80.67 0.31, 129.34 0.1, 203 0 M203 0 C225.09 1.54, 234.74 9.57, 235 32 M203 0 C222.13 0.48, 235.8 12.42, 235 32 M235 32 C235.08 45.29, 235.4 60.25, 235 97 M235 32 C235.97 56.3, 235.13 78.34, 235 97 M235 97 C236.31 117.44, 225.63 130.12, 203 129 M235 97 C235.96 118.55, 223.73 130.59, 203 129 M203 129 C167.67 132.44, 130.51 128.92, 32 129 M203 129 C149.18 129.96, 93.75 128.99, 32 129 M32 129 C9.13 129.79, 0.36 118.88, 0 97 M32 129 C10.16 128.43, 0.86 120.41, 0 97 M0 97 C1.93 72.47, 1.04 47.95, 0 32 M0 97 C-0.66 72.65, -1.23 49.52, 0 32 M0 32 C-0.09 11.21, 9.83 -1.08, 32 0 M0 32 C-1.71 11.02, 8.69 1.7, 32 0" stroke="#1e1e1e" stroke-width="2" fill="none"></path></g><g transform="translate(24.550003051757812 397) rotate(0 105.44999694824219 24)"><text x="105.44999694824219" y="19.3125" font-family="Cascadia, Segoe UI Emoji" font-size="20px" fill="#1e1e1e" text-anchor="middle" style="white-space: pre;" direction="ltr" dominant-baseline="alphabetic">Get city and </text><text x="105.44999694824219" y="43.3125" font-family="Cascadia, Segoe UI Emoji" font-size="20px" fill="#1e1e1e" text-anchor="middle" style="white-space: pre;" direction="ltr" dominant-baseline="alphabetic">country from hotel</text></g><g stroke-linecap="round" transform="translate(604 354) rotate(0 117.5 64.5)"><path d="M32 0 C74.67 -1.13, 116.46 1.19, 203 0 C225.02 2.31, 232.27 8.05, 235 32 C232.1 42.57, 236.96 58.77, 235 97 C231.9 121.54, 227.19 127.6, 203 129 C163.64 130.49, 119.46 129.75, 32 129 C12.71 127.37, -2.73 117.63, 0 97 C-2.32 76.87, -1.52 60.26, 0 32 C-2.15 12.06, 13.19 2.61, 32 0" stroke="none" stroke-width="0" fill="#b2f2bb"></path><path d="M32 0 C85.04 -2.75, 139.57 -3.19, 203 0 M32 0 C94.12 1.25, 155.98 0.72, 203 0 M203 0 C224.08 1.39, 234.14 8.93, 235 32 M203 0 C222.72 0.82, 236.73 11.65, 235 32 M235 32 C235.41 48.98, 235.12 66.88, 235 97 M235 32 C235.53 50.29, 234.89 68.79, 235 97 M235 97 C236.87 119.85, 226.15 130.76, 203 129 M235 97 C235.82 116.23, 224.43 129.6, 203 129 M203 129 C167.35 130.36, 130.48 129.71, 32 129 M203 129 C134.78 128.96, 66.37 128.9, 32 129 M32 129 C9.38 128.58, 1.65 117.9, 0 97 M32 129 C12 130.01, -1.91 119.97, 0 97 M0 97 C-0.38 78.69, 1.03 60.45, 0 32 M0 97 C-0.72 71.73, -0.36 46.68, 0 32 M0 32 C1.36 11.09, 12.64 -1.93, 32 0 M0 32 C-0.04 10.93, 12.45 -0.62, 32 0" stroke="#1e1e1e" stroke-width="2" fill="none"></path></g><g transform="translate(621.908332824707 394.5) rotate(0 99.59166717529297 24)"><text x="99.59166717529297" y="19.3125" font-family="Cascadia, Segoe UI Emoji" font-size="20px" fill="#1e1e1e" text-anchor="middle" style="white-space: pre;" direction="ltr" dominant-baseline="alphabetic">Get latitude and </text><text x="99.59166717529297" y="43.3125" font-family="Cascadia, Segoe UI Emoji" font-size="20px" fill="#1e1e1e" text-anchor="middle" style="white-space: pre;" direction="ltr" dominant-baseline="alphabetic">longitude </text></g><g mask="url(#mask-87kGpwwjZ5Kz822iDqeQo)" stroke-linecap="round"><g transform="translate(248.5 416.66709301062826) rotate(0 177.25 1.8734266636888037)"><path d="M0.13 -0.58 C59.23 0.17, 295.77 3.45, 355.02 4.19 M-1.25 1.73 C57.68 2.13, 294.89 1.72, 354.35 2.3" stroke="#1e1e1e" stroke-width="2" fill="none"></path></g><g transform="translate(248.5 416.66709301062826) rotate(0 177.25 1.8734266636888037)"><path d="M330.83 10.77 C337.87 8.74, 347.56 6.95, 354.35 2.3 M330.83 10.77 C338.57 8.37, 345.6 6.07, 354.35 2.3" stroke="#1e1e1e" stroke-width="2" fill="none"></path></g><g transform="translate(248.5 416.66709301062826) rotate(0 177.25 1.8734266636888037)"><path d="M330.89 -6.33 C337.87 -2.55, 347.54 1.47, 354.35 2.3 M330.89 -6.33 C338.66 -3.45, 345.67 -0.48, 354.35 2.3" stroke="#1e1e1e" stroke-width="2" fill="none"></path></g></g><mask id="mask-87kGpwwjZ5Kz822iDqeQo"><rect x="0" y="0" fill="#fff" width="703" height="520.4139463380059"></rect><rect x="326.15833282470703" y="406.5405196743171" fill="#000" width="199.18333435058594" height="24" opacity="1"></rect></mask><g transform="translate(326.15833282470703 406.540519674317) rotate(0 99.22608627789191 11.929988005757338)"><text x="99.59166717529297" y="19.3125" font-family="Cascadia, Segoe UI Emoji" font-size="20px" fill="#1e1e1e" text-anchor="middle" style="white-space: pre;" direction="ltr" dominant-baseline="alphabetic">Forwarding Gecode</text></g><g stroke-linecap="round" transform="translate(10 10) rotate(0 117.5 64.5)"><path d="M32 0 C87.75 3.27, 140.63 0.97, 203 0 C221.59 -0.21, 233.68 10.38, 235 32 C232.23 54.88, 233.66 75.93, 235 97 C237.4 120.91, 225.41 130.13, 203 129 C142.21 130.17, 76.5 127.75, 32 129 C8.21 131.18, -3.5 117.52, 0 97 C-0.87 85.85, 0.74 72.91, 0 32 C1.44 8.71, 9.79 -0.31, 32 0" stroke="none" stroke-width="0" fill="#b2f2bb"></path><path d="M32 0 C77.83 0.75, 124.86 1.97, 203 0 M32 0 C78.6 -1.55, 126.47 -0.98, 203 0 M203 0 C222.9 1.89, 234.54 10.56, 235 32 M203 0 C225.88 -0.31, 234.21 11.74, 235 32 M235 32 C232.88 57.11, 233.2 81.77, 235 97 M235 32 C234.65 49.62, 234.81 68.27, 235 97 M235 97 C236.76 118.92, 223.77 128.92, 203 129 M235 97 C236.86 116.07, 223.48 127.93, 203 129 M203 129 C155.51 130.06, 103.84 129.06, 32 129 M203 129 C164.9 129.93, 126.55 129.03, 32 129 M32 129 C8.75 128.66, -1.47 117.11, 0 97 M32 129 C10.33 128.8, -1.5 119.57, 0 97 M0 97 C-1.72 75.17, 1.42 55.13, 0 32 M0 97 C0.11 72.52, -0.46 48.09, 0 32 M0 32 C0.95 9.53, 12.43 -1.03, 32 0 M0 32 C-0.5 9.36, 10.78 0.48, 32 0" stroke="#1e1e1e" stroke-width="2" fill="none"></path></g><g transform="translate(74.7750015258789 62.5) rotate(0 52.724998474121094 12)"><text x="52.724998474121094" y="19.3125" font-family="Cascadia, Segoe UI Emoji" font-size="20px" fill="#1e1e1e" text-anchor="middle" style="white-space: pre;" direction="ltr" dominant-baseline="alphabetic">Add hotel</text></g><g stroke-linecap="round"><g transform="translate(132.5 107.5) rotate(0 -1 131)"><path d="M0.89 -0.72 C0.88 42.74, -0.48 217.58, -0.85 261.3 M-0.1 1.52 C-0.1 45.08, -0.92 218.93, -1.2 262.47" stroke="#1e1e1e" stroke-width="2" fill="none"></path></g><g transform="translate(132.5 107.5) rotate(0 -1 131)"><path d="M-9.62 238.93 C-8.74 246.3, -6.73 251.02, -1.2 262.47 M-9.62 238.93 C-7.51 245.45, -4.66 250.77, -1.2 262.47" stroke="#1e1e1e" stroke-width="2" fill="none"></path></g><g transform="translate(132.5 107.5) rotate(0 -1 131)"><path d="M7.48 239.02 C4.35 246.5, 2.35 251.19, -1.2 262.47 M7.48 239.02 C5 245.66, 3.26 250.96, -1.2 262.47" stroke="#1e1e1e" stroke-width="2" fill="none"></path></g></g><mask></mask><g stroke-linecap="round" transform="translate(607.5 660.25) rotate(0 117.5 64.5)"><path d="M32 0 C71.88 -2.27, 102.59 3.67, 203 0 C221.52 1, 238.01 7.14, 235 32 C237.25 50.66, 234.41 68.45, 235 97 C237.67 121.38, 226.37 127.75, 203 129 C166.2 132.68, 124.52 132.4, 32 129 C11.55 127.26, 0.62 116.72, 0 97 C-0.64 72.46, -0.84 44.34, 0 32 C-1.22 8.04, 10.78 1.77, 32 0" stroke="none" stroke-width="0" fill="#b2f2bb"></path><path d="M32 0 C92.19 -0.74, 151.98 -0.46, 203 0 M32 0 C80.79 -0.75, 129.58 -0.23, 203 0 M203 0 C223.11 0.9, 236.65 10.59, 235 32 M203 0 C222.04 0.96, 233.42 11.37, 235 32 M235 32 C235.24 45.84, 236.27 59.9, 235 97 M235 32 C234.47 53.44, 234.01 73.35, 235 97 M235 97 C234.96 119.17, 223.38 129.47, 203 129 M235 97 C235.35 120.12, 223.35 129.23, 203 129 M203 129 C157.57 128.56, 114.16 128.73, 32 129 M203 129 C154.38 130.35, 103.6 131.17, 32 129 M32 129 C10.15 129.39, -1.51 116.34, 0 97 M32 129 C9.03 128.63, 1.44 117.36, 0 97 M0 97 C1.04 76.03, 1.29 52.91, 0 32 M0 97 C0.63 78.62, -0.61 59.64, 0 32 M0 32 C-1.15 9.41, 10.89 -1.26, 32 0 M0 32 C0.32 10.58, 10.84 0.26, 32 0" stroke="#1e1e1e" stroke-width="2" fill="none"></path></g><g transform="translate(613.6916656494141 688.75) rotate(0 111.30833435058594 36)"><text x="111.30833435058594" y="19.3125" font-family="Cascadia, Segoe UI Emoji" font-size="20px" fill="#1e1e1e" text-anchor="middle" style="white-space: pre;" direction="ltr" dominant-baseline="alphabetic">Generate maps and </text><text x="111.30833435058594" y="43.3125" font-family="Cascadia, Segoe UI Emoji" font-size="20px" fill="#1e1e1e" text-anchor="middle" style="white-space: pre;" direction="ltr" dominant-baseline="alphabetic">show coordinates of</text><text x="111.30833435058594" y="67.3125" font-family="Cascadia, Segoe UI Emoji" font-size="20px" fill="#1e1e1e" text-anchor="middle" style="white-space: pre;" direction="ltr" dominant-baseline="alphabetic">hotel</text></g><g mask="url(#mask-6NRgAxYY_zCyJgsoiEKv7)" stroke-linecap="round"><g transform="translate(722.5 439.75) rotate(0 -1.25 108.75)"><path d="M-1.08 0.25 C-1.35 36.6, -1.41 180.97, -1.6 217.14 M0.55 -0.67 C0.2 35.94, -1.51 181.96, -2.07 218.48" stroke="#1e1e1e" stroke-width="2" fill="none"></path></g><g transform="translate(722.5 439.75) rotate(0 -1.25 108.75)"><path d="M-10.31 194.88 C-7.62 203.53, -6.17 209.6, -2.07 218.48 M-10.31 194.88 C-8.72 202.16, -6.84 208.45, -2.07 218.48" stroke="#1e1e1e" stroke-width="2" fill="none"></path></g><g transform="translate(722.5 439.75) rotate(0 -1.25 108.75)"><path d="M6.79 195.1 C4.35 203.54, 0.68 209.54, -2.07 218.48 M6.79 195.1 C3.6 202.42, 0.69 208.65, -2.07 218.48" stroke="#1e1e1e" stroke-width="2" fill="none"></path></g></g><mask id="mask-6NRgAxYY_zCyJgsoiEKv7"><rect x="0" y="0" fill="#fff" width="825" height="757.25"></rect><rect x="656.8083343505859" y="524.5" fill="#000" width="128.88333129882812" height="48" opacity="1"></rect></mask><g transform="translate(656.8083343505859 524.5) rotate(0 64.92871102199899 24.157180042555552)"><text x="64.44166564941406" y="19.3125" font-family="Cascadia, Segoe UI Emoji" font-size="20px" fill="#1e1e1e" text-anchor="middle" style="white-space: pre;" direction="ltr" dominant-baseline="alphabetic">Pass </text><text x="64.44166564941406" y="43.3125" font-family="Cascadia, Segoe UI Emoji" font-size="20px" fill="#1e1e1e" text-anchor="middle" style="white-space: pre;" direction="ltr" dominant-baseline="alphabetic">to MapBoxGL</text></g></svg>